<?xml version="1.0" encoding="UTF-8" standalone="no"?>
<svg xmlns:rdf="http://www.w3.org/1999/02/22-rdf-syntax-ns#" xmlns="http://www.w3.org/2000/svg" xml:space="preserve" height="87.708" viewBox="0 0 87.936249 87.70774" width="87.936" version="1.1" xmlns:cc="http://creativecommons.org/ns#" xmlns:dc="http://purl.org/dc/elements/1.1/"><g transform="matrix(1.25 0 0 -1.25 -510.47 -77.898)"><path d="m584.87 21.111h-568.95v174.63h568.95v-174.63z" fill="#262424"/><g transform="translate(87.155 120.9)"><path d="m0 0 6.465-22.273c0.313-1.129 0.649-2.352 1.004-3.664 0.356-1.316 0.676-2.523 0.965-3.629h0.078c0.16 1.106 0.43 2.293 0.809 3.57 0.383 1.274 0.73 2.434 1.047 3.489l3.113 10.207c0.234 0.734 0.445 1.402 0.629 1.992 0.183 0.59 0.375 1.137 0.57 1.637 0.199 0.496 0.391 0.968 0.574 1.418 0.18 0.445 0.395 0.894 0.629 1.339v0.079l-4.648-0.317v6.152h15.332v-5.164c-1.078 0-2.024-0.355-2.836-1.066-0.816-0.711-1.52-1.551-2.113-2.523-0.59-0.969-1.075-1.942-1.457-2.915-0.383-0.972-0.664-1.722-0.848-2.246l-9.184-26.687h-8.554l-5.559 17.226c-0.156 0.418-0.351 1.016-0.59 1.793-0.234 0.774-0.48 1.618-0.73 2.524s-0.512 1.844-0.789 2.816c-0.274 0.973-0.532 1.895-0.766 2.758h-0.082c-0.156-1.129-0.41-2.398-0.766-3.801-0.355-1.406-0.722-2.781-1.105-4.121s-0.734-2.547-1.063-3.625c-0.328-1.078-0.574-1.84-0.73-2.289l-4.453-13.281h-8l-9.777 27.984c-0.372 1.028-0.657 1.856-0.868 2.485-0.211 0.632-0.39 1.175-0.535 1.636-0.144 0.461-0.254 0.875-0.332 1.243-0.078 0.367-0.172 0.789-0.277 1.261l-3.153-0.16v6.152h19.356v-5.164c-1.133-0.082-1.926-0.421-2.387-1.027-0.461-0.601-0.687-1.379-0.687-2.324-0.028-0.445 0.004-0.922 0.097-1.418 0.09-0.5 0.215-1.012 0.375-1.539l2.719-9.856c0.317-1.179 0.621-2.422 0.926-3.722 0.301-1.301 0.547-2.621 0.73-3.961h0.079c0.128 0.578 0.261 1.168 0.394 1.773 0.133 0.606 0.273 1.254 0.434 1.949 0.156 0.696 0.339 1.461 0.55 2.289 0.211 0.829 0.457 1.739 0.75 2.739l5.911 20.261h8.753z" fill="#fff"/></g><g transform="translate(146.56 122.2)"><path d="m0 0c0.945 0 1.847-0.133 2.699-0.394 0.852-0.266 1.602-0.664 2.246-1.203 0.645-0.539 1.156-1.231 1.539-2.071 0.379-0.84 0.571-1.851 0.571-3.035 0-0.629-0.106-1.281-0.317-1.949-0.211-0.672-0.539-1.281-0.984-1.836-0.446-0.551-1.032-1.004-1.754-1.355-0.723-0.356-1.598-0.536-2.621-0.536-0.551 0-1.117 0.075-1.696 0.219-0.578 0.141-1.109 0.395-1.597 0.746-0.485 0.356-0.907 0.836-1.258 1.442-0.356 0.601-0.574 1.379-0.652 2.324-0.817 0-1.637-0.27-2.465-0.809-0.824-0.539-1.602-1.207-2.324-2.008-0.723-0.804-1.36-1.664-1.915-2.582-0.55-0.922-0.945-1.75-1.179-2.484v-13.168c0-0.391-0.008-0.867-0.02-1.418-0.015-0.551-0.035-1.141-0.062-1.773-0.024-0.633-0.055-1.282-0.098-1.95-0.039-0.671-0.086-1.308-0.137-1.914l5.243 0.239v-6.153h-21.168v5.246c1.132 0 2.015 0.168 2.66 0.512 0.644 0.34 1.125 0.828 1.441 1.457 0.317 0.633 0.512 1.387 0.59 2.265 0.078 0.884 0.117 1.86 0.117 2.938v13.598c0 0.973 0.024 2.059 0.063 3.254s0.121 2.398 0.254 3.605l-5.676-0.234v6.07c1.867 0 3.515 0.078 4.949 0.242 1.43 0.157 2.652 0.36 3.664 0.598 1.012 0.242 1.828 0.5 2.445 0.781 0.614 0.282 1.067 0.555 1.36 0.825h3.98l0.352-6.942h0.121c0.523 0.711 1.164 1.5 1.91 2.367 0.75 0.867 1.617 1.676 2.606 2.426 0.984 0.746 2.066 1.379 3.25 1.891 1.183 0.511 2.468 0.769 3.863 0.769" fill="#fff"/></g><g transform="translate(174.49 93.499)"><path d="m0 0c0-0.391-0.004-0.867-0.019-1.418-0.016-0.551-0.031-1.141-0.059-1.773-0.027-0.633-0.058-1.282-0.097-1.95-0.039-0.671-0.086-1.308-0.137-1.914l5.242 0.239v-6.149h-21.168v5.242c1.129 0 2.016 0.168 2.66 0.512 0.645 0.34 1.121 0.828 1.438 1.457 0.316 0.633 0.512 1.387 0.594 2.266 0.078 0.883 0.117 1.859 0.117 2.937v13.403c0 0.972 0.019 2.089 0.058 3.351s0.125 2.496 0.258 3.703l-5.68-0.234v6.07c1.868 0 3.516 0.078 4.95 0.242 1.433 0.157 2.656 0.36 3.668 0.598 1.007 0.242 1.824 0.5 2.441 0.781 0.617 0.282 1.07 0.555 1.359 0.821h4.375v-28.184z" fill="#fff"/></g><g transform="translate(180.81 120.9)"><path d="m0 0c1.39 0.024 2.691 0.375 3.902 1.043 1.207 0.672 2.289 1.504 3.25 2.504 0.961 0.996 1.777 2.09 2.445 3.27 0.672 1.183 1.165 2.289 1.477 3.312h5.953l-0.039-10.129h10.289v-6.23l-10.289-0.195c-0.027-3.817-0.047-6.981-0.059-9.496-0.015-2.512-0.027-4.524-0.039-6.036-0.015-1.515-0.019-2.593-0.019-3.238v-1.125c0-0.949 0.058-1.89 0.176-2.824 0.117-0.934 0.355-1.774 0.711-2.527 0.355-0.75 0.851-1.352 1.496-1.817 0.644-0.457 1.48-0.687 2.504-0.687 0.339 0 0.769 0.054 1.281 0.16 0.512 0.105 1.09 0.32 1.734 0.652 0.645 0.332 1.332 0.824 2.071 1.473 0.734 0.648 1.484 1.515 2.246 2.601l3.902-3.625c-1.473-2.156-2.945-3.824-4.414-5.007-1.473-1.184-2.879-2.051-4.219-2.602s-2.562-0.879-3.668-0.984c-1.101-0.106-2.023-0.161-2.758-0.161-0.894 0-1.82 0.075-2.777 0.219-0.961 0.145-1.906 0.414-2.84 0.809-0.929 0.394-1.812 0.949-2.64 1.676-0.829 0.722-1.563 1.66-2.207 2.816-0.645 1.156-1.149 2.559-1.52 4.199-0.367 1.641-0.551 3.578-0.551 5.813l0.117 19.472-5.515-0.078v6.742z" fill="#fff"/></g><g transform="translate(236.31 116.52)"><path d="m0 0c-1.184 0-2.242-0.223-3.176-0.668-0.934-0.446-1.738-1.063-2.422-1.852s-1.246-1.742-1.676-2.859c-0.433-1.118-0.742-2.344-0.925-3.684h14.859c-0.055 1.652-0.25 3.059-0.594 4.215-0.34 1.156-0.805 2.098-1.398 2.82-0.59 0.723-1.282 1.242-2.067 1.555-0.789 0.316-1.656 0.473-2.601 0.473m17.816-14.266-26.531-0.473c0-2.211 0.203-4.254 0.613-6.129 0.406-1.882 1.059-3.496 1.949-4.851 0.895-1.352 2.063-2.418 3.508-3.192 1.446-0.773 3.219-1.164 5.324-1.164 0.813 0 1.719 0.106 2.719 0.317s2.016 0.551 3.055 1.023c1.035 0.473 2.082 1.098 3.133 1.875 1.05 0.774 2.039 1.727 2.957 2.856l3.629-3.43c-1.45-2.074-2.985-3.758-4.614-5.043-1.629-1.289-3.265-2.289-4.906-2.996-1.644-0.711-3.262-1.188-4.851-1.438-1.59-0.25-3.067-0.375-4.434-0.375-2.969 0-5.676 0.496-8.121 1.496-2.442 0.997-4.547 2.43-6.305 4.297-1.762 1.864-3.121 4.114-4.082 6.739-0.957 2.629-1.437 5.586-1.437 8.871 0 2.836 0.48 5.551 1.437 8.14 0.961 2.586 2.32 4.879 4.082 6.879 1.758 1.996 3.879 3.586 6.367 4.766 2.481 1.184 5.246 1.777 8.297 1.777 1.496 0 2.988-0.133 4.473-0.394 1.484-0.266 2.902-0.707 4.258-1.321 1.351-0.617 2.613-1.425 3.785-2.425 1.168-1 2.172-2.235 3.012-3.707 0.843-1.469 1.503-3.204 1.992-5.2 0.484-2 0.715-4.3 0.691-6.898" fill="#fff"/></g><g transform="translate(300.69 99.135)"><path d="m0 0c-1.524-0.157-2.953-0.434-4.297-0.828-1.34-0.395-2.5-0.918-3.488-1.563-0.985-0.644-1.758-1.418-2.325-2.312-0.566-0.899-0.847-1.926-0.847-3.086 0.027-0.766 0.172-1.41 0.433-1.938 0.262-0.527 0.598-0.961 1.004-1.304 0.41-0.344 0.883-0.594 1.422-0.75 0.539-0.161 1.098-0.239 1.676-0.239 1.258 0 2.43 0.262 3.508 0.789 1.074 0.528 2.035 1.254 2.875 2.176l0.039 9.055zm-20.692 12.418c0 1.578 0.438 3.023 1.317 4.336 0.883 1.316 2.093 2.437 3.629 3.371 1.539 0.929 3.343 1.656 5.422 2.168 2.074 0.511 4.292 0.769 6.66 0.769 2.363 0 4.472-0.304 6.328-0.906 1.851-0.605 3.414-1.539 4.687-2.801 1.274-1.262 2.25-2.863 2.918-4.808 0.672-1.946 1.004-4.258 1.004-6.938 0-1.367-0.004-2.566-0.015-3.605-0.016-1.039-0.024-2.039-0.024-2.996 0-0.961-0.004-1.965-0.019-3.016-0.012-1.051-0.02-2.262-0.02-3.629 0-0.394-0.008-0.867-0.019-1.418-0.012-0.551-0.028-1.144-0.04-1.773-0.011-0.629-0.039-1.282-0.078-1.95-0.039-0.671-0.086-1.308-0.136-1.914l5.203 0.239v-6.149h-15.258c-0.102 0.762-0.176 1.399-0.215 1.91-0.039 0.512-0.074 1.11-0.098 1.793h-0.078c-1.84-1.84-3.761-3.132-5.758-3.882-1.996-0.75-4.058-1.126-6.187-1.126-1.734 0-3.285 0.274-4.652 0.813-1.364 0.535-2.516 1.293-3.446 2.266-0.937 0.968-1.652 2.109-2.152 3.41s-0.746 2.722-0.746 4.273c0 1.711 0.301 3.246 0.906 4.614 0.602 1.367 1.438 2.585 2.5 3.664 1.067 1.078 2.32 2.011 3.766 2.8 1.445 0.789 3 1.446 4.672 1.969 1.668 0.527 3.41 0.934 5.222 1.223 1.813 0.289 3.625 0.472 5.438 0.551v4.218c0 1.078-0.09 2.071-0.274 2.977-0.183 0.906-0.5 1.687-0.945 2.344-0.449 0.66-1.039 1.171-1.773 1.539-0.739 0.367-1.657 0.539-2.762 0.511-1.102-0.05-2.129-0.273-3.074-0.668-0.946-0.394-1.762-0.945-2.442-1.656 0.418-0.445 0.688-0.961 0.809-1.539 0.113-0.578 0.176-1.062 0.176-1.457 0-0.578-0.106-1.16-0.317-1.754-0.211-0.59-0.539-1.128-0.984-1.617-0.449-0.484-1.012-0.887-1.695-1.203-0.684-0.313-1.5-0.473-2.446-0.473-0.789 0.028-1.496 0.192-2.129 0.496-0.629 0.301-1.156 0.696-1.574 1.18-0.422 0.489-0.746 1.059-0.965 1.715-0.226 0.656-0.336 1.367-0.336 2.129" fill="#fff"/></g><g transform="translate(326.51 93.855)"><path d="m0 0c0.106-1.235 0.5-2.391 1.184-3.469 0.683-1.078 1.574-2.008 2.679-2.797 1.106-0.789 2.399-1.406 3.883-1.856 1.484-0.445 3.082-0.668 4.789-0.668 0.656 0 1.321 0.079 1.988 0.235 0.672 0.16 1.27 0.402 1.797 0.73 0.524 0.328 0.95 0.742 1.278 1.242 0.332 0.5 0.496 1.106 0.496 1.813 0 0.762-0.207 1.414-0.61 1.953-0.41 0.539-1.007 1.039-1.796 1.496-0.79 0.461-1.766 0.914-2.934 1.36-1.172 0.449-2.52 0.972-4.043 1.578-1.68 0.656-3.375 1.336-5.086 2.031-1.707 0.695-3.258 1.543-4.648 2.543-1.395 0.996-2.532 2.226-3.411 3.683-0.882 1.458-1.32 3.278-1.32 5.461 0 1.551 0.297 3.098 0.887 4.649s1.504 2.945 2.738 4.18c1.235 1.234 2.813 2.242 4.731 3.015 1.918 0.774 4.203 1.164 6.859 1.164 0.734 0 1.531-0.054 2.383-0.16 0.855-0.105 1.715-0.269 2.582-0.492s1.711-0.504 2.523-0.848c0.817-0.34 1.551-0.746 2.207-1.222h0.078l-0.117 2.289h6.149v-14.27h-5.203c-0.235 1.391-0.676 2.645-1.317 3.766-0.648 1.117-1.453 2.062-2.426 2.836-0.972 0.773-2.086 1.371-3.332 1.793-1.25 0.422-2.593 0.629-4.039 0.629-0.683 0-1.347-0.079-1.992-0.235-0.644-0.156-1.215-0.406-1.715-0.75-0.5-0.34-0.894-0.781-1.183-1.32s-0.434-1.203-0.434-1.988c0-0.95 0.25-1.731 0.75-2.348s1.195-1.149 2.09-1.594c0.894-0.449 1.937-0.863 3.133-1.242 1.195-0.383 2.492-0.809 3.882-1.281 2.051-0.711 3.942-1.489 5.676-2.328 1.735-0.84 3.235-1.817 4.496-2.934 1.262-1.121 2.25-2.394 2.977-3.824 0.719-1.434 1.082-3.094 1.082-4.988 0-2.102-0.414-3.934-1.242-5.497-0.828-1.566-1.926-2.859-3.289-3.882-1.367-1.028-2.93-1.793-4.692-2.309-1.761-0.512-3.59-0.77-5.48-0.77-1.156 0-2.313 0.083-3.469 0.239s-2.262 0.375-3.312 0.652c-1.051 0.274-2.016 0.609-2.895 1.004-0.883 0.395-1.637 0.828-2.269 1.301h-0.079l0.278-2.446h-6.149l-0.316 13.876h5.203z" fill="#fff"/></g><g transform="translate(448.92 -83.118)"><path d="m0 0 5.805-20.007c0.285-1.016 0.586-2.114 0.902-3.293 0.32-1.18 0.609-2.266 0.871-3.258h0.066c0.145 0.992 0.387 2.058 0.727 3.207 0.344 1.144 0.656 2.187 0.941 3.133l2.797 9.172c0.211 0.66 0.399 1.257 0.567 1.789 0.164 0.531 0.336 1.019 0.511 1.468 0.18 0.446 0.348 0.871 0.516 1.274 0.164 0.402 0.352 0.801 0.567 1.203v0.07l-4.18-0.281v5.523h13.773v-4.64c-0.969 0-1.816-0.317-2.547-0.953-0.734-0.637-1.363-1.395-1.894-2.266-0.535-0.875-0.969-1.75-1.313-2.621-0.343-0.875-0.597-1.547-0.761-2.02l-8.25-23.972h-7.684l-4.992 15.472c-0.141 0.379-0.32 0.918-0.531 1.614-0.211 0.695-0.43 1.453-0.657 2.265-0.222 0.817-0.461 1.661-0.707 2.532-0.246 0.875-0.476 1.699-0.691 2.48h-0.07c-0.141-1.016-0.372-2.156-0.692-3.418-0.316-1.262-0.648-2.496-0.992-3.699-0.34-1.203-0.66-2.289-0.953-3.258-0.297-0.969-0.516-1.652-0.656-2.055l-4-11.933h-7.188l-8.781 25.14c-0.332 0.922-0.59 1.664-0.781 2.231-0.188 0.566-0.348 1.059-0.477 1.473-0.133 0.41-0.23 0.781-0.301 1.113-0.07 0.332-0.156 0.707-0.25 1.133l-2.832-0.141v5.523h17.387v-4.64c-1.016-0.07-1.73-0.375-2.145-0.918-0.414-0.543-0.617-1.242-0.617-2.09-0.023-0.402 0.004-0.828 0.086-1.273 0.086-0.45 0.196-0.911 0.34-1.383l2.441-8.852c0.286-1.062 0.559-2.179 0.832-3.347 0.27-1.168 0.489-2.356 0.657-3.559h0.07c0.117 0.52 0.234 1.051 0.356 1.594 0.117 0.543 0.246 1.129 0.386 1.754 0.145 0.625 0.309 1.312 0.496 2.054 0.192 0.742 0.414 1.563 0.676 2.457l5.309 18.203h7.863z" fill="#fff"/></g><g transform="translate(176.15 135.48)"><path d="m0 0c0-3.656-2.965-6.621-6.622-6.621-3.66 0-6.625 2.965-6.625 6.621 0 3.661 2.965 6.626 6.625 6.626 3.657 0 6.622-2.965 6.622-6.626" fill="#5bc4ee"/></g><g transform="translate(272.46 85.855)"><path d="m0 0c0-3.661-2.965-6.626-6.621-6.626s-6.621 2.965-6.621 6.626c0 3.656 2.965 6.621 6.621 6.621s6.621-2.965 6.621-6.621" fill="#5bc4ee"/></g><g transform="translate(478.73 -113.74)"><path d="m0 0c0-3.285-2.664-5.949-5.949-5.949s-5.945 2.664-5.945 5.949 2.66 5.949 5.945 5.949 5.949-2.664 5.949-5.949" fill="#5bc4ee"/></g></g></svg>
